<mxfile host="app.diagrams.net" agent="Mozilla/5.0 (Windows NT 10.0; Win64; x64) AppleWebKit/537.36 (KHTML, like Gecko) Chrome/128.0.0.0 Safari/537.36 OPR/114.0.0.0 (Edition std-1)" version="26.0.6">
  <diagram name="Page-1" id="gFa2UXqvHVDioa90V4Bb">
    <mxGraphModel dx="2015" dy="1094" grid="1" gridSize="10" guides="1" tooltips="1" connect="1" arrows="1" fold="1" page="1" pageScale="1" pageWidth="827" pageHeight="1169" math="0" shadow="0">
      <root>
        <mxCell id="0" />
        <mxCell id="1" parent="0" />
        <mxCell id="DDCHJt5CuGyL2GwbdBjl-13" style="edgeStyle=orthogonalEdgeStyle;rounded=0;orthogonalLoop=1;jettySize=auto;html=1;exitX=1;exitY=0.5;exitDx=0;exitDy=0;entryX=0;entryY=0.5;entryDx=0;entryDy=0;" parent="1" source="DDCHJt5CuGyL2GwbdBjl-1" target="DDCHJt5CuGyL2GwbdBjl-2" edge="1">
          <mxGeometry relative="1" as="geometry" />
        </mxCell>
        <mxCell id="DDCHJt5CuGyL2GwbdBjl-1" value="Demandé" style="rounded=1;whiteSpace=wrap;html=1;" parent="1" vertex="1">
          <mxGeometry x="140" y="160" width="120" height="60" as="geometry" />
        </mxCell>
        <mxCell id="DDCHJt5CuGyL2GwbdBjl-15" style="edgeStyle=orthogonalEdgeStyle;rounded=0;orthogonalLoop=1;jettySize=auto;html=1;exitX=0.5;exitY=0;exitDx=0;exitDy=0;entryX=0.75;entryY=0;entryDx=0;entryDy=0;" parent="1" source="DDCHJt5CuGyL2GwbdBjl-2" edge="1" target="DDCHJt5CuGyL2GwbdBjl-2">
          <mxGeometry relative="1" as="geometry">
            <mxPoint x="800" y="130" as="targetPoint" />
            <Array as="points">
              <mxPoint x="770" y="100" />
              <mxPoint x="801" y="100" />
            </Array>
          </mxGeometry>
        </mxCell>
        <mxCell id="ItKIsxd9g5_q2HduYJZ3-2" style="edgeStyle=orthogonalEdgeStyle;rounded=0;orthogonalLoop=1;jettySize=auto;html=1;exitX=0.5;exitY=1;exitDx=0;exitDy=0;entryX=0.5;entryY=0;entryDx=0;entryDy=0;" edge="1" parent="1" source="DDCHJt5CuGyL2GwbdBjl-2" target="DDCHJt5CuGyL2GwbdBjl-4">
          <mxGeometry relative="1" as="geometry" />
        </mxCell>
        <mxCell id="DDCHJt5CuGyL2GwbdBjl-2" value="En préparation" style="rounded=1;whiteSpace=wrap;html=1;" parent="1" vertex="1">
          <mxGeometry x="710" y="160" width="120" height="60" as="geometry" />
        </mxCell>
        <mxCell id="ItKIsxd9g5_q2HduYJZ3-17" style="edgeStyle=orthogonalEdgeStyle;rounded=0;orthogonalLoop=1;jettySize=auto;html=1;entryX=0.5;entryY=0;entryDx=0;entryDy=0;" edge="1" parent="1" source="DDCHJt5CuGyL2GwbdBjl-3" target="ItKIsxd9g5_q2HduYJZ3-15">
          <mxGeometry relative="1" as="geometry" />
        </mxCell>
        <mxCell id="DDCHJt5CuGyL2GwbdBjl-3" value="annulé" style="rounded=1;whiteSpace=wrap;html=1;" parent="1" vertex="1">
          <mxGeometry x="290" y="410" width="120" height="60" as="geometry" />
        </mxCell>
        <mxCell id="ItKIsxd9g5_q2HduYJZ3-4" style="edgeStyle=orthogonalEdgeStyle;rounded=0;orthogonalLoop=1;jettySize=auto;html=1;exitX=0.5;exitY=1;exitDx=0;exitDy=0;entryX=0.5;entryY=0;entryDx=0;entryDy=0;" edge="1" parent="1" source="DDCHJt5CuGyL2GwbdBjl-4" target="DDCHJt5CuGyL2GwbdBjl-6">
          <mxGeometry relative="1" as="geometry" />
        </mxCell>
        <mxCell id="DDCHJt5CuGyL2GwbdBjl-4" value="arrivé à échéance" style="rounded=1;whiteSpace=wrap;html=1;" parent="1" vertex="1">
          <mxGeometry x="710" y="300" width="120" height="60" as="geometry" />
        </mxCell>
        <mxCell id="ItKIsxd9g5_q2HduYJZ3-16" style="edgeStyle=orthogonalEdgeStyle;rounded=0;orthogonalLoop=1;jettySize=auto;html=1;entryX=1;entryY=0.5;entryDx=0;entryDy=0;" edge="1" parent="1" source="DDCHJt5CuGyL2GwbdBjl-5" target="ItKIsxd9g5_q2HduYJZ3-15">
          <mxGeometry relative="1" as="geometry" />
        </mxCell>
        <mxCell id="DDCHJt5CuGyL2GwbdBjl-5" value="distribué" style="rounded=1;whiteSpace=wrap;html=1;" parent="1" vertex="1">
          <mxGeometry x="120" y="555" width="120" height="60" as="geometry" />
        </mxCell>
        <mxCell id="ItKIsxd9g5_q2HduYJZ3-6" style="edgeStyle=orthogonalEdgeStyle;rounded=0;orthogonalLoop=1;jettySize=auto;html=1;entryX=0.5;entryY=0;entryDx=0;entryDy=0;" edge="1" parent="1" source="DDCHJt5CuGyL2GwbdBjl-6" target="DDCHJt5CuGyL2GwbdBjl-8">
          <mxGeometry relative="1" as="geometry" />
        </mxCell>
        <mxCell id="DDCHJt5CuGyL2GwbdBjl-6" value="composé" style="rounded=1;whiteSpace=wrap;html=1;" parent="1" vertex="1">
          <mxGeometry x="710" y="430" width="120" height="50" as="geometry" />
        </mxCell>
        <mxCell id="ItKIsxd9g5_q2HduYJZ3-10" style="edgeStyle=orthogonalEdgeStyle;rounded=0;orthogonalLoop=1;jettySize=auto;html=1;entryX=1;entryY=0.5;entryDx=0;entryDy=0;" edge="1" parent="1" source="DDCHJt5CuGyL2GwbdBjl-7" target="DDCHJt5CuGyL2GwbdBjl-5">
          <mxGeometry relative="1" as="geometry" />
        </mxCell>
        <mxCell id="DDCHJt5CuGyL2GwbdBjl-7" value="payé" style="rounded=1;whiteSpace=wrap;html=1;" parent="1" vertex="1">
          <mxGeometry x="415" y="555" width="120" height="60" as="geometry" />
        </mxCell>
        <mxCell id="ItKIsxd9g5_q2HduYJZ3-7" style="edgeStyle=orthogonalEdgeStyle;rounded=0;orthogonalLoop=1;jettySize=auto;html=1;entryX=1;entryY=0.5;entryDx=0;entryDy=0;" edge="1" parent="1" source="DDCHJt5CuGyL2GwbdBjl-8" target="DDCHJt5CuGyL2GwbdBjl-7">
          <mxGeometry relative="1" as="geometry" />
        </mxCell>
        <mxCell id="ItKIsxd9g5_q2HduYJZ3-8" style="edgeStyle=orthogonalEdgeStyle;rounded=0;orthogonalLoop=1;jettySize=auto;html=1;entryX=1;entryY=0.75;entryDx=0;entryDy=0;" edge="1" parent="1" source="DDCHJt5CuGyL2GwbdBjl-8" target="DDCHJt5CuGyL2GwbdBjl-3">
          <mxGeometry relative="1" as="geometry">
            <Array as="points">
              <mxPoint x="730" y="530" />
              <mxPoint x="570" y="530" />
              <mxPoint x="570" y="455" />
            </Array>
          </mxGeometry>
        </mxCell>
        <mxCell id="DDCHJt5CuGyL2GwbdBjl-8" value="facturé" style="rounded=1;whiteSpace=wrap;html=1;" parent="1" vertex="1">
          <mxGeometry x="710" y="555" width="120" height="60" as="geometry" />
        </mxCell>
        <mxCell id="DDCHJt5CuGyL2GwbdBjl-10" value="" style="ellipse;html=1;shape=startState;fillColor=#000000;strokeColor=#ff0000;" parent="1" vertex="1">
          <mxGeometry x="40" y="175" width="30" height="30" as="geometry" />
        </mxCell>
        <mxCell id="DDCHJt5CuGyL2GwbdBjl-11" value="" style="edgeStyle=orthogonalEdgeStyle;html=1;verticalAlign=bottom;endArrow=open;endSize=8;strokeColor=#ff0000;rounded=0;entryX=0;entryY=0.5;entryDx=0;entryDy=0;" parent="1" source="DDCHJt5CuGyL2GwbdBjl-10" target="DDCHJt5CuGyL2GwbdBjl-1" edge="1">
          <mxGeometry relative="1" as="geometry">
            <mxPoint x="130" y="220" as="targetPoint" />
          </mxGeometry>
        </mxCell>
        <mxCell id="DDCHJt5CuGyL2GwbdBjl-12" value="Demander un colis" style="text;html=1;align=center;verticalAlign=middle;whiteSpace=wrap;rounded=0;" parent="1" vertex="1">
          <mxGeometry x="70" y="140" width="60" height="30" as="geometry" />
        </mxCell>
        <mxCell id="DDCHJt5CuGyL2GwbdBjl-14" value="ajouter un jouet au panier&lt;div&gt;[premier jouet dans un panier]&lt;/div&gt;" style="text;html=1;align=center;verticalAlign=middle;whiteSpace=wrap;rounded=0;" parent="1" vertex="1">
          <mxGeometry x="390" y="140" width="170" height="30" as="geometry" />
        </mxCell>
        <mxCell id="ItKIsxd9g5_q2HduYJZ3-1" value="ajouter un jouet au panier" style="text;html=1;align=center;verticalAlign=middle;whiteSpace=wrap;rounded=0;" vertex="1" parent="1">
          <mxGeometry x="710" y="60" width="140" height="30" as="geometry" />
        </mxCell>
        <mxCell id="ItKIsxd9g5_q2HduYJZ3-3" value="indiquer échéance arrivée [date &amp;gt;= 15/12]" style="text;html=1;align=center;verticalAlign=middle;whiteSpace=wrap;rounded=0;" vertex="1" parent="1">
          <mxGeometry x="780" y="240" width="140" height="30" as="geometry" />
        </mxCell>
        <mxCell id="ItKIsxd9g5_q2HduYJZ3-5" value="composer colis" style="text;html=1;align=center;verticalAlign=middle;whiteSpace=wrap;rounded=0;" vertex="1" parent="1">
          <mxGeometry x="790" y="380" width="80" height="30" as="geometry" />
        </mxCell>
        <mxCell id="ItKIsxd9g5_q2HduYJZ3-11" value="facturer colis" style="text;html=1;align=center;verticalAlign=middle;whiteSpace=wrap;rounded=0;" vertex="1" parent="1">
          <mxGeometry x="790" y="500" width="60" height="30" as="geometry" />
        </mxCell>
        <mxCell id="ItKIsxd9g5_q2HduYJZ3-12" value="constater paiement [ date &amp;lt; 25/12]" style="text;html=1;align=center;verticalAlign=middle;whiteSpace=wrap;rounded=0;" vertex="1" parent="1">
          <mxGeometry x="600" y="610" width="110" height="30" as="geometry" />
        </mxCell>
        <mxCell id="ItKIsxd9g5_q2HduYJZ3-13" value="annuler la distribution [date &amp;gt;= 25]" style="text;html=1;align=center;verticalAlign=middle;whiteSpace=wrap;rounded=0;" vertex="1" parent="1">
          <mxGeometry x="580" y="480" width="120" height="30" as="geometry" />
        </mxCell>
        <mxCell id="ItKIsxd9g5_q2HduYJZ3-14" value="indiquer distrubution faite" style="text;html=1;align=center;verticalAlign=middle;whiteSpace=wrap;rounded=0;" vertex="1" parent="1">
          <mxGeometry x="290" y="540" width="100" height="30" as="geometry" />
        </mxCell>
        <mxCell id="ItKIsxd9g5_q2HduYJZ3-15" value="" style="ellipse;html=1;shape=endState;fillColor=#000000;strokeColor=#ff0000;" vertex="1" parent="1">
          <mxGeometry x="30" y="570" width="30" height="30" as="geometry" />
        </mxCell>
      </root>
    </mxGraphModel>
  </diagram>
</mxfile>
